<svg width="16" height="16" viewBox="0 0 16 16" fill="none" xmlns="http://www.w3.org/2000/svg">
<path fill-rule="evenodd" clip-rule="evenodd" d="M5.33329 1.5C5.60943 1.5 5.83329 1.72386 5.83329 2V2.83333H10.1666V2C10.1666 1.72386 10.3905 1.5 10.6666 1.5C10.9428 1.5 11.1666 1.72386 11.1666 2V2.83333H12C12.4862 2.83333 12.9525 3.02649 13.2963 3.3703C13.6401 3.71412 13.8333 4.18044 13.8333 4.66667V12.6667C13.8333 13.1529 13.6401 13.6192 13.2963 13.963C12.9525 14.3068 12.4862 14.5 12 14.5H3.99996C3.51373 14.5 3.04741 14.3068 2.7036 13.963C2.35978 13.6192 2.16663 13.1529 2.16663 12.6667V4.66667C2.16663 4.18044 2.35978 3.71412 2.7036 3.3703C3.04741 3.02649 3.51373 2.83333 3.99996 2.83333H4.83329V2C4.83329 1.72386 5.05715 1.5 5.33329 1.5ZM4.83329 3.83333H3.99996C3.77895 3.83333 3.56698 3.92113 3.4107 4.07741C3.25442 4.23369 3.16663 4.44565 3.16663 4.66667V6.83333H12.8333V4.66667C12.8333 4.44565 12.7455 4.23369 12.5892 4.07741C12.4329 3.92113 12.221 3.83333 12 3.83333H11.1666V4.66667C11.1666 4.94281 10.9428 5.16667 10.6666 5.16667C10.3905 5.16667 10.1666 4.94281 10.1666 4.66667V3.83333H5.83329V4.66667C5.83329 4.94281 5.60943 5.16667 5.33329 5.16667C5.05715 5.16667 4.83329 4.94281 4.83329 4.66667V3.83333ZM12.8333 7.83333H3.16663V12.6667C3.16663 12.8877 3.25442 13.0996 3.4107 13.2559C3.56698 13.4122 3.77895 13.5 3.99996 13.5H12C12.221 13.5 12.4329 13.4122 12.5892 13.2559C12.7455 13.0996 12.8333 12.8877 12.8333 12.6667V7.83333ZM4.16663 9.33333C4.16663 9.05719 4.39048 8.83333 4.66663 8.83333H4.67529C4.95143 8.83333 5.17529 9.05719 5.17529 9.33333C5.17529 9.60948 4.95143 9.83333 4.67529 9.83333H4.66663C4.39048 9.83333 4.16663 9.60948 4.16663 9.33333ZM6.17329 9.33333C6.17329 9.05719 6.39715 8.83333 6.67329 8.83333H6.67663C6.95277 8.83333 7.17663 9.05719 7.17663 9.33333C7.17663 9.60948 6.95277 9.83333 6.67663 9.83333H6.67329C6.39715 9.83333 6.17329 9.60948 6.17329 9.33333ZM8.17329 9.33333C8.17329 9.05719 8.39715 8.83333 8.67329 8.83333H8.67663C8.95277 8.83333 9.17663 9.05719 9.17663 9.33333C9.17663 9.60948 8.95277 9.83333 8.67663 9.83333H8.67329C8.39715 9.83333 8.17329 9.60948 8.17329 9.33333ZM10.1766 9.33333C10.1766 9.05719 10.4005 8.83333 10.6766 8.83333H10.68C10.9561 8.83333 11.18 9.05719 11.18 9.33333C11.18 9.60948 10.9561 9.83333 10.68 9.83333H10.6766C10.4005 9.83333 10.1766 9.60948 10.1766 9.33333ZM4.17329 11.3333C4.17329 11.0572 4.39715 10.8333 4.67329 10.8333H4.67663C4.95277 10.8333 5.17663 11.0572 5.17663 11.3333C5.17663 11.6095 4.95277 11.8333 4.67663 11.8333H4.67329C4.39715 11.8333 4.17329 11.6095 4.17329 11.3333ZM6.17329 11.3333C6.17329 11.0572 6.39715 10.8333 6.67329 10.8333H6.67663C6.95277 10.8333 7.17663 11.0572 7.17663 11.3333C7.17663 11.6095 6.95277 11.8333 6.67663 11.8333H6.67329C6.39715 11.8333 6.17329 11.6095 6.17329 11.3333ZM8.17663 11.3333C8.17663 11.0572 8.40048 10.8333 8.67663 10.8333H8.67996C8.9561 10.8333 9.17996 11.0572 9.17996 11.3333C9.17996 11.6095 8.9561 11.8333 8.67996 11.8333H8.67663C8.40048 11.8333 8.17663 11.6095 8.17663 11.3333Z" fill="white"/>
</svg>
