<svg width="16" height="16" viewBox="0 0 16 16" fill="none" xmlns="http://www.w3.org/2000/svg">
<path fill-rule="evenodd" clip-rule="evenodd" d="M3.76083 2.4275C4.35469 1.83363 5.16015 1.5 6 1.5C6.83985 1.5 7.64531 1.83363 8.23917 2.4275C8.83304 3.02136 9.16667 3.82681 9.16667 4.66667C9.16667 5.50652 8.83304 6.31197 8.23917 6.90584C7.64531 7.4997 6.83985 7.83333 6 7.83333C5.16015 7.83333 4.35469 7.4997 3.76083 6.90584C3.16696 6.31197 2.83333 5.50652 2.83333 4.66667C2.83333 3.82681 3.16696 3.02136 3.76083 2.4275ZM6 2.5C5.42536 2.5 4.87426 2.72827 4.46794 3.1346C4.06161 3.54093 3.83333 4.09203 3.83333 4.66667C3.83333 5.2413 4.06161 5.7924 4.46794 6.19873C4.87426 6.60506 5.42536 6.83333 6 6.83333C6.57464 6.83333 7.12574 6.60506 7.53206 6.19873C7.93839 5.7924 8.16667 5.2413 8.16667 4.66667C8.16667 4.09203 7.93839 3.54093 7.53206 3.1346C7.12574 2.72827 6.57464 2.5 6 2.5ZM10.1823 1.96265C10.2508 1.69513 10.5232 1.5338 10.7907 1.60229C11.4718 1.7767 12.0756 2.17285 12.5067 2.72829C12.9379 3.28373 13.1719 3.96687 13.1719 4.67C13.1719 5.37314 12.9379 6.05627 12.5067 6.61171C12.0756 7.16715 11.4718 7.5633 10.7907 7.73771C10.5232 7.8062 10.2508 7.64487 10.1823 7.37735C10.1138 7.10984 10.2751 6.83745 10.5426 6.76896C11.0087 6.64963 11.4218 6.37858 11.7168 5.99854C12.0118 5.6185 12.1719 5.15109 12.1719 4.67C12.1719 4.18891 12.0118 3.7215 11.7168 3.34146C11.4218 2.96142 11.0087 2.69037 10.5426 2.57104C10.2751 2.50255 10.1138 2.23016 10.1823 1.96265ZM4.66667 10.5C4.09203 10.5 3.54093 10.7283 3.1346 11.1346C2.72827 11.5409 2.5 12.092 2.5 12.6667V14C2.5 14.2761 2.27614 14.5 2 14.5C1.72386 14.5 1.5 14.2761 1.5 14V12.6667C1.5 11.8268 1.83363 11.0214 2.4275 10.4275C3.02136 9.83363 3.82681 9.5 4.66667 9.5H7.33333C8.17319 9.5 8.97864 9.83363 9.5725 10.4275C10.1664 11.0214 10.5 11.8268 10.5 12.6667V14C10.5 14.2761 10.2761 14.5 10 14.5C9.72386 14.5 9.5 14.2761 9.5 14V12.6667C9.5 12.092 9.27173 11.5409 8.8654 11.1346C8.45907 10.7283 7.90797 10.5 7.33333 10.5H4.66667ZM11.5159 9.97501C11.5849 9.70763 11.8576 9.54684 12.125 9.61588C12.8017 9.7906 13.4016 10.1843 13.8312 10.7356C14.2608 11.2869 14.496 11.9649 14.5 12.6638L14.5 12.6667L14.5 14C14.5 14.2761 14.2761 14.5 14 14.5C13.7239 14.5 13.5 14.2761 13.5 14V12.6681C13.4969 12.1904 13.3361 11.7271 13.0424 11.3503C12.7485 10.973 12.338 10.7037 11.875 10.5841C11.6076 10.5151 11.4468 10.2424 11.5159 9.97501Z" fill="#9890A6"/>
</svg>
