<svg width="12" height="12" viewBox="0 0 12 12" fill="none" xmlns="http://www.w3.org/2000/svg">
<path fill-rule="evenodd" clip-rule="evenodd" d="M1.33333 1.16669C1.28913 1.16669 1.24674 1.18425 1.21548 1.2155C1.18423 1.24676 1.16667 1.28915 1.16667 1.33335V5.33335C1.16667 5.37756 1.18423 5.41995 1.21548 5.4512C1.24674 5.48246 1.28913 5.50002 1.33333 5.50002H4C4.0442 5.50002 4.08659 5.48246 4.11785 5.4512C4.14911 5.41995 4.16667 5.37756 4.16667 5.33335V1.33335C4.16667 1.28915 4.14911 1.24676 4.11785 1.2155C4.08659 1.18425 4.0442 1.16669 4 1.16669H1.33333ZM0.508375 0.508396C0.727167 0.289604 1.02391 0.166687 1.33333 0.166687H4C4.30942 0.166687 4.60616 0.289604 4.82496 0.508396C5.04375 0.727188 5.16667 1.02393 5.16667 1.33335V5.33335C5.16667 5.64277 5.04375 5.93952 4.82496 6.15831C4.60616 6.3771 4.30942 6.50002 4 6.50002H1.33333C1.02391 6.50002 0.727167 6.3771 0.508375 6.15831C0.289583 5.93952 0.166666 5.64277 0.166666 5.33335V1.33335C0.166666 1.02393 0.289583 0.727188 0.508375 0.508396ZM8 1.16669C7.9558 1.16669 7.9134 1.18425 7.88215 1.2155C7.85089 1.24676 7.83333 1.28915 7.83333 1.33335V2.66669C7.83333 2.71089 7.85089 2.75328 7.88215 2.78454C7.9134 2.81579 7.9558 2.83335 8 2.83335H10.6667C10.7109 2.83335 10.7533 2.81579 10.7845 2.78454C10.8158 2.75328 10.8333 2.71089 10.8333 2.66669V1.33335C10.8333 1.28915 10.8158 1.24676 10.7845 1.2155C10.7533 1.18425 10.7109 1.16669 10.6667 1.16669H8ZM7.17504 0.508396C7.39383 0.289604 7.69058 0.166687 8 0.166687H10.6667C10.9761 0.166687 11.2728 0.289603 11.4916 0.508396C11.7104 0.727189 11.8333 1.02394 11.8333 1.33335V2.66669C11.8333 2.97611 11.7104 3.27285 11.4916 3.49164C11.2728 3.71044 10.9761 3.83335 10.6667 3.83335H8C7.69058 3.83335 7.39383 3.71044 7.17504 3.49164C6.95625 3.27285 6.83333 2.97611 6.83333 2.66669V1.33335C6.83333 1.02393 6.95625 0.727188 7.17504 0.508396ZM8 6.50002C7.9558 6.50002 7.9134 6.51758 7.88215 6.54884C7.85089 6.58009 7.83333 6.62248 7.83333 6.66669V10.6667C7.83333 10.7109 7.85089 10.7533 7.88215 10.7845C7.9134 10.8158 7.9558 10.8334 8 10.8334H10.6667C10.7109 10.8334 10.7533 10.8158 10.7845 10.7845C10.8158 10.7533 10.8333 10.7109 10.8333 10.6667V6.66669C10.8333 6.62248 10.8158 6.58009 10.7845 6.54884C10.7533 6.51758 10.7109 6.50002 10.6667 6.50002H8ZM7.17504 5.84173C7.39383 5.62294 7.69058 5.50002 8 5.50002H10.6667C10.9761 5.50002 11.2728 5.62294 11.4916 5.84173C11.7104 6.06052 11.8333 6.35727 11.8333 6.66669V10.6667C11.8333 10.9761 11.7104 11.2729 11.4916 11.4916C11.2728 11.7104 10.9761 11.8334 10.6667 11.8334H8C7.69058 11.8334 7.39383 11.7104 7.17504 11.4916C6.95625 11.2729 6.83333 10.9761 6.83333 10.6667V6.66669C6.83333 6.35727 6.95625 6.06052 7.17504 5.84173ZM1.33333 9.16669C1.28913 9.16669 1.24674 9.18425 1.21548 9.2155C1.18423 9.24676 1.16667 9.28915 1.16667 9.33335V10.6667C1.16667 10.7109 1.18423 10.7533 1.21548 10.7845C1.24674 10.8158 1.28913 10.8334 1.33333 10.8334H4C4.0442 10.8334 4.08659 10.8158 4.11785 10.7845C4.14911 10.7533 4.16667 10.7109 4.16667 10.6667V9.33335C4.16667 9.28915 4.14911 9.24676 4.11785 9.2155C4.08659 9.18425 4.0442 9.16669 4 9.16669H1.33333ZM0.508375 8.5084C0.727168 8.2896 1.02391 8.16669 1.33333 8.16669H4C4.30942 8.16669 4.60616 8.2896 4.82496 8.5084C5.04375 8.72719 5.16667 9.02393 5.16667 9.33335V10.6667C5.16667 10.9761 5.04375 11.2729 4.82496 11.4916C4.60616 11.7104 4.30942 11.8334 4 11.8334H1.33333C1.02391 11.8334 0.727168 11.7104 0.508375 11.4916C0.289582 11.2729 0.166666 10.9761 0.166666 10.6667V9.33335C0.166666 9.02393 0.289582 8.72719 0.508375 8.5084Z" fill="#9890A6"/>
</svg>
